<svg width="12" height="16" viewBox="0 0 12 16" fill="none" xmlns="http://www.w3.org/2000/svg">
<path fill-rule="evenodd" clip-rule="evenodd" d="M2.3595 4.57887L2.78994 4.42645C3.29276 4.24839 3.65054 3.7679 3.65054 3.20635C3.65054 2.49201 3.07252 1.91292 2.3595 1.91292C1.64649 1.91292 1.06847 2.49201 1.06847 3.20635C1.06847 3.7679 1.42624 4.24839 1.92907 4.42645L2.3595 4.57887ZM5.43987 12.1805L5.02125 12.363C4.56226 12.5632 4.24461 13.0206 4.24461 13.55C4.24461 14.2643 4.82263 14.8434 5.53564 14.8434C6.24866 14.8434 6.82668 14.2643 6.82668 13.55C6.82668 12.9572 6.42771 12.455 5.88219 12.3034L5.43987 12.1805ZM8.71189 4.57887L9.14231 4.42642C9.64509 4.24834 10.0028 3.76787 10.0028 3.20635C10.0028 2.49201 9.4248 1.91292 8.71179 1.91292C7.99877 1.91292 7.42075 2.49201 7.42075 3.20635C7.42075 3.76793 7.77857 4.24845 8.28144 4.42648L8.71189 4.57887ZM3.13412 5.40204V6.36867C3.13412 6.81102 3.35976 7.22268 3.73232 7.46007L5.43062 8.54219L7.22042 7.65191C7.65958 7.43346 7.93733 6.98463 7.93733 6.49341V5.4021C7.03466 5.08254 6.38793 4.22011 6.38793 3.20635C6.38793 1.92053 7.42835 0.878174 8.71179 0.878174C9.99522 0.878174 11.0356 1.92053 11.0356 3.20635C11.0356 4.21999 10.3891 5.08233 9.48657 5.40199V6.49341C9.48657 7.5741 8.87553 8.56152 7.90938 9.0421L6.1583 9.91313V11.3063C7.13937 11.579 7.8595 12.4803 7.8595 13.55C7.8595 14.8358 6.81908 15.8782 5.53564 15.8782C4.25221 15.8782 3.21179 14.8358 3.21179 13.55C3.21179 12.5942 3.78674 11.7728 4.60906 11.4143V9.85814L2.90091 8.76975C2.08128 8.2475 1.58488 7.34183 1.58488 6.36867V5.40204C0.682303 5.08244 0.0356445 4.22005 0.0356445 3.20635C0.0356445 1.92053 1.07607 0.878174 2.3595 0.878174C3.64293 0.878174 4.68336 1.92053 4.68336 3.20635C4.68336 4.22005 4.0367 5.08244 3.13412 5.40204Z" fill="#82828E"/>
</svg>
