<svg width="12" height="16" fill="none" xmlns="http://www.w3.org/2000/svg"><path fill-rule="evenodd" clip-rule="evenodd" d="M2.36 4.579l.43-.153a1.294 1.294 0 0 0-.43-2.513 1.294 1.294 0 1 0-.43 2.514l.43.152zm3.08 7.602l-.419.182a1.294 1.294 0 0 0 .515 2.48 1.294 1.294 0 1 0 .347-2.54l-.443-.123zm3.272-7.602l.43-.153a1.294 1.294 0 0 0-.43-2.513 1.294 1.294 0 1 0-.43 2.514l.43.152zm-5.578.823v.967c0 .442.226.854.598 1.091l1.699 1.082 1.79-.89c.439-.219.716-.667.716-1.159v-1.09A2.329 2.329 0 0 1 8.712.877a2.329 2.329 0 1 1 .775 4.524v1.091a2.847 2.847 0 0 1-1.578 2.55l-1.75.87v1.393a2.329 2.329 0 0 1-.623 4.572 2.326 2.326 0 0 1-2.324-2.328 2.33 2.33 0 0 1 1.397-2.136V9.858L2.901 8.77a2.847 2.847 0 0 1-1.316-2.401v-.967A2.329 2.329 0 0 1 2.36.878a2.329 2.329 0 1 1 .775 4.524z" fill="#82828E"/></svg>