<svg width="144" height="141" xmlns="http://www.w3.org/2000/svg"><g fill="none" fill-rule="evenodd"><path d="M65.257 3.667a3.796 3.796 0 0 1-3.172 4.331c-30.46 4.707-53.78 31.045-53.78 62.823 0 30.476 21.45 55.952 50.078 62.138a3.796 3.796 0 0 1-1.604 7.42C24.73 133.454.715 104.946.715 70.821c0-35.58 26.108-65.055 60.212-70.325a3.796 3.796 0 0 1 4.33 3.171z" fill="#FF595C"/><path d="M83.872 3.444A3.796 3.796 0 0 1 88.384.536c27.938 6.037 49.764 28.466 54.911 56.728a3.796 3.796 0 1 1-7.468 1.36c-4.596-25.232-24.099-45.277-49.047-50.668a3.796 3.796 0 0 1-2.908-4.512z" fill="#FFC700"/><path d="M140.241 78.51a3.796 3.796 0 0 1 3.054 4.414c-5.399 29.643-29.15 52.873-59.058 57.495a3.796 3.796 0 0 1-1.16-7.502c26.704-4.126 47.928-24.885 52.749-51.354a3.796 3.796 0 0 1 4.415-3.054z" fill="#ADADB9"/></g></svg>